<svg xmlns="http://www.w3.org/2000/svg" viewBox="0 0 328.53 434.59"><g id="Layer_2" data-name="Layer 2"><g id="Layer_1-2" data-name="Layer 1"><path id="user" d="M328,374.12c-1.65-1-3.27-2-4.9-3-3.7-2.32-7.39-4.63-11.27-6.6q-38.68-19.58-77.55-38.82c-9.73-4.85-16.52-12.34-17.49-23.22-1.07-11.89-.69-23.91-.81-35.88a5.57,5.57,0,0,1,1.56-3C231,246.86,240.87,228.17,248,207.94a10.76,10.76,0,0,1,4.75-5c7.9-4.41,13.61-10.54,14.08-19.77a346.51,346.51,0,0,0,.33-38.4c-.32-5.42-3.92-10.63-6-16-.85-2.21-2.24-4.46-2.26-6.7-.17-16.83,0-33.66-.07-50.49-.2-29.49-14.09-50.19-40.81-62.23-15.2-6.85-31.4-9-48-9.31C152.7-.3,135.64.91,119,6.29c-29.24,9.45-49.72,33.36-48.8,67.27.43,15.65,0,31.33.2,47a15.69,15.69,0,0,1-3.14,9.52c-2.33,3.45-4.58,7.67-4.81,11.68-.76,12.78-.85,25.61-.65,38.41a24.93,24.93,0,0,0,10.29,20.13c1.16.89,1.82,2.72,2.22,4.24a172.36,172.36,0,0,0,17.3,41.67c4.15,7.26,10.14,14,12.23,21.77s.14,16.89.54,25.37c.7,15-6,25.23-19,32.21C61.09,338.6,36.94,351.9,12.81,365.23c-2.16,1.2-4.24,2.54-6.3,3.93s-4.31,3-6.51,4.4a11.88,11.88,0,0,0,1.28,2c34.75,28.67,74.25,47.17,118.65,55,10.13,1.78,20.41,2.74,30.63,4.08h28c5.1-.62,10.2-1.28,15.31-1.86,49.09-5.58,92.74-24.17,131.31-54.92a26.28,26.28,0,0,1,3.35-1.93C328.36,375.29,328.18,374.71,328,374.12Z"/></g></g></svg>